<svg width="512" height="512" viewBox="0 0 512 512" fill="none" xmlns="http://www.w3.org/2000/svg">
<path fill-rule="evenodd" clip-rule="evenodd" d="M25.6 0C11.4615 0 0 11.4615 0 25.6V435.2C0 449.339 11.4615 460.8 25.6 460.8L486.4 512C500.538 512 512 500.538 512 486.4V76.8C512 62.6615 500.538 51.2 486.4 51.2L25.6 0ZM128.003 147.2C128.003 143.666 130.868 140.8 134.403 140.8H377.603C381.137 140.8 384.003 143.666 384.003 147.2V185.6C384.003 189.135 381.137 192 377.603 192H134.403C130.868 192 128.003 189.135 128.003 185.6V147.2ZM130.715 223.526C131.084 220.01 134.233 217.46 137.748 217.83L379.616 243.251C383.131 243.62 385.682 246.77 385.312 250.285L381.298 288.475C380.929 291.99 377.78 294.54 374.264 294.171L132.397 268.749C128.881 268.38 126.331 265.231 126.701 261.715L130.715 223.526ZM134.403 320C130.868 320 128.003 322.866 128.003 326.4V364.8C128.003 368.335 130.868 371.2 134.403 371.2H377.603C381.137 371.2 384.003 368.335 384.003 364.8V326.4C384.003 322.866 381.137 320 377.603 320H134.403Z" fill="white"/>
</svg>
